<svg viewBox="0 0 640 440" xmlns="http://www.w3.org/2000/svg" role="img" aria-label="Ilustración de una agenda con lista de tareas de IT">
  <rect width="640" height="440" fill="#dfe9f2"/>
  <rect x="210" y="60" width="220" height="320" rx="14" fill="#ffffff" stroke="#2f6fa8" stroke-width="4"/>
  <rect x="210" y="60" width="220" height="46" rx="14" fill="#2f6fa8"/>
  <circle cx="260" cy="83" r="7" fill="#ffffff"/>
  <circle cx="285" cy="83" r="7" fill="#ffffff"/>
  <circle cx="310" cy="83" r="7" fill="#ffffff"/>

  <g stroke="#1d4f7c" stroke-width="4" stroke-linecap="round">
    <rect x="235" y="140" width="18" height="18" rx="3" fill="none"/>
    <path d="M239 149 l4 4 l9 -9" fill="none"/>
    <line x1="266" y1="149" x2="400" y2="149"/>

    <rect x="235" y="190" width="18" height="18" rx="3" fill="none"/>
    <path d="M239 199 l4 4 l9 -9" fill="none"/>
    <line x1="266" y1="199" x2="400" y2="199"/>

    <rect x="235" y="240" width="18" height="18" rx="3" fill="#6fb7d9" stroke="#6fb7d9"/>
    <line x1="266" y1="249" x2="380" y2="249" stroke="#8ea4b6"/>

    <rect x="235" y="290" width="18" height="18" rx="3" fill="none"/>
    <line x1="266" y1="299" x2="390" y2="299"/>
  </g>

  <circle cx="450" cy="330" r="46" fill="#2f6fa8"/>
  <g stroke="#ffffff" stroke-width="5" stroke-linecap="round" fill="none">
    <circle cx="450" cy="330" r="16"/>
    <line x1="450" y1="304" x2="450" y2="296"/>
    <line x1="450" y1="356" x2="450" y2="364"/>
    <line x1="424" y1="330" x2="416" y2="330"/>
    <line x1="476" y1="330" x2="484" y2="330"/>
    <line x1="432" y1="312" x2="426" y2="306"/>
    <line x1="468" y1="348" x2="474" y2="354"/>
    <line x1="468" y1="312" x2="474" y2="306"/>
    <line x1="432" y1="348" x2="426" y2="354"/>
  </g>
</svg>
